# xmcd
#
# Track frame offsets:
#	150
#	17644
#	38589
#	56255
#	69309
#	91402
#	112492
#	133020
#	150693
#	169905
#	185156
#	199660
#	219935
#
# Disc length: 3106 seconds
#
# Revision: 1
# Processed by: cddbd v1.5.2PL0 Copyright (c) Steve Scherf et al.
# Submitted via: audiograbber 1.83.01
#
DISCID=b40c200d
DTITLE=Daan - Manhay
DYEAR=2011
DGENRE=Blues
TTITLE0=Exes
TTITLE1=Your Eyes
TTITLE2=Brand new Truth
TTITLE3=Icon
TTITLE4=Friendly Fire
TTITLE5=Crawling from the Wreck
TTITLE6=Bad Boy, Bad Girl
TTITLE7=Radio Silence
TTITLE8=A great Retriever
TTITLE9=Decisisons
TTITLE10=Beauty calls Collect
TTITLE11=The stealing kind
TTITLE12=Icon (Special Radio Mix)
EXTD=
EXTT0=
EXTT1=
EXTT2=
EXTT3=
EXTT4=
EXTT5=
EXTT6=
EXTT7=
EXTT8=
EXTT9=
EXTT10=
EXTT11=
EXTT12=
PLAYORDER=
